<?xml version="1.0" encoding="utf-8"?>
<!-- Generator: Adobe Illustrator 19.0.0, SVG Export Plug-In . SVG Version: 6.00 Build 0)  -->
<svg version="1.1" id="Capa_1" xmlns="http://www.w3.org/2000/svg" xmlns:xlink="http://www.w3.org/1999/xlink" x="0px" y="0px"
	 viewBox="0 0 419.4 285.8" style="enable-background:new 0 0 419.4 285.8;" xml:space="preserve">
<style type="text/css">
	.st0{opacity:0.26;fill:url(#XMLID_57_);}
	.st1{opacity:0.26;fill:url(#XMLID_58_);}
	.st2{fill:#7AB3A9;}
	.st3{fill:#7587BD;}
	.st4{fill:#EFD36C;}
	.st5{fill:#565FA0;}
	.st6{fill:#A7D1F0;}
	.st7{fill:#CF776E;}
	.st8{fill:#C2C3C8;}
</style>
<g id="XMLID_14_">
	<g id="XMLID_15_">
		<linearGradient id="XMLID_57_" gradientUnits="userSpaceOnUse" x1="99.8091" y1="64.4967" x2="143.2129" y2="133.1665">
			<stop  offset="0" style="stop-color:#F6F6F5"/>
			<stop  offset="0.5311" style="stop-color:#E9EAE9"/>
			<stop  offset="1" style="stop-color:#DADBDA"/>
		</linearGradient>
		<polygon id="XMLID_9_" class="st0" points="156.4,115.9 125.1,139 125.1,139 83.7,77.2 83.7,77.2 115.2,54.3 115.2,54.3 
			156.4,115.9 		"/>
		<linearGradient id="XMLID_58_" gradientUnits="userSpaceOnUse" x1="174.4504" y1="64.4969" x2="217.8541" y2="133.1668">
			<stop  offset="0" style="stop-color:#F6F6F5"/>
			<stop  offset="0.5311" style="stop-color:#E9EAE9"/>
			<stop  offset="1" style="stop-color:#DADBDA"/>
		</linearGradient>
		<polygon id="XMLID_8_" class="st1" points="231,115.9 199.7,139 199.7,139 158.4,77.2 158.4,77.2 189.8,54.3 189.8,54.3 
			231,115.9 		"/>
		<path id="XMLID_7_" class="st2" d="M158.8,121.6c3.2,14.3-9.3,26.7-23.5,23.5c-7.2-1.6-13-7.4-14.6-14.6
			c-3.1-14.3,9.3-26.7,23.5-23.5C151.4,108.6,157.2,114.4,158.8,121.6z"/>
		<path id="XMLID_6_" class="st3" d="M233.3,121.6c3.2,14.3-9.3,26.7-23.6,23.5c-7.2-1.6-13-7.4-14.6-14.6
			c-3.1-14.3,9.3-26.7,23.5-23.5C225.9,108.6,231.7,114.4,233.3,121.6z"/>
		<path id="XMLID_5_" class="st4" d="M284.3,145.1c-7.2-1.6-13-7.4-14.5-14.6c-3.1-14.2,9.3-26.6,23.5-23.5
			c7.2,1.6,13,7.4,14.6,14.6C311,135.8,298.6,148.3,284.3,145.1"/>
		<path id="XMLID_4_" class="st5" d="M119.7,62.9c3.2,14.3-9.3,26.7-23.5,23.5c-7.2-1.6-13-7.4-14.6-14.6
			c-3.1-14.3,9.3-26.7,23.5-23.5C112.3,49.9,118.1,55.7,119.7,62.9z"/>
		<path id="XMLID_3_" class="st6" d="M194.2,62.9c3.2,14.3-9.3,26.7-23.6,23.6c-7.2-1.6-13-7.4-14.6-14.6
			c-3.1-14.3,9.3-26.7,23.5-23.5C186.8,49.9,192.6,55.7,194.2,62.9z"/>
		<path id="XMLID_2_" class="st7" d="M268.7,62.9c3.2,14.3-9.3,26.7-23.6,23.6c-7.2-1.6-13-7.4-14.6-14.6
			c-3.1-14.2,9.3-26.6,23.5-23.5C261.3,49.9,267.1,55.7,268.7,62.9z"/>
	</g>
</g>
<g id="XMLID_10_">
	<g id="XMLID_166_">
		<path id="XMLID_183_" class="st8" d="M43.7,191.1c0-0.8,0.3-1.5,0.8-2c0.5-0.5,1.2-0.8,2-0.8c1.3,0,2.2,0.6,2.7,1.9l10.3,29.4
			l8.5-29.4c0.1-0.5,0.4-0.9,0.9-1.3c0.4-0.4,1-0.6,1.7-0.6s1.2,0.2,1.7,0.6c0.5,0.4,0.8,0.8,0.9,1.3l8.4,29.4l10.3-29.5
			c0.5-1.2,1.3-1.9,2.6-1.9c0.8,0,1.5,0.3,2,0.8c0.5,0.5,0.8,1.2,0.8,2c0,0.4-0.1,0.8-0.3,1.3L84,228.1c-0.5,1.2-1.4,1.9-2.7,1.9
			c-0.6,0-1.1-0.2-1.6-0.6c-0.5-0.4-0.8-0.9-0.9-1.5l-8.2-28.2L62.4,228c-0.2,0.6-0.5,1.1-1,1.5s-1.1,0.6-1.7,0.6
			c-1.3,0-2.2-0.6-2.6-1.9l-13.1-35.8C43.8,191.9,43.7,191.5,43.7,191.1z"/>
		<path id="XMLID_180_" class="st8" d="M109.5,225.1c-3.3-3.6-4.9-8.9-4.9-16.1c0-7.1,1.6-12.4,4.9-16c3.3-3.5,7.9-5.3,13.8-5.3
			c5.9,0,10.5,1.8,13.8,5.3c3.3,3.5,4.9,8.9,4.9,16c0,7.1-1.6,12.5-4.9,16.1c-3.3,3.6-7.8,5.4-13.8,5.4
			C117.4,230.5,112.8,228.7,109.5,225.1z M110.4,209.1c0,10.8,4.3,16.3,12.9,16.3s12.9-5.4,12.9-16.3c0-10.8-4.3-16.2-12.9-16.2
			S110.4,198.3,110.4,209.1z"/>
		<path id="XMLID_178_" class="st8" d="M154.3,227.2v-36.1c0-0.8,0.3-1.5,0.8-2c0.5-0.5,1.2-0.8,2-0.8c0.8,0,1.5,0.3,2,0.8
			c0.5,0.5,0.8,1.2,0.8,2v3.9c0.9-2.1,2.5-3.8,4.6-5.1c2.2-1.3,4.7-2,7.7-2c0.8,0,1.4,0.3,1.9,0.8s0.8,1.2,0.8,1.9s-0.3,1.4-0.8,2
			s-1.2,0.8-1.9,0.8c-4,0-7,1.3-9.2,3.8c-2.1,2.5-3.2,5.9-3.2,10.1v19.9c0,0.8-0.3,1.5-0.8,2s-1.2,0.8-2,0.8c-0.8,0-1.5-0.3-2-0.8
			S154.3,228,154.3,227.2z"/>
		<path id="XMLID_176_" class="st8" d="M187.1,219.6v-50.8c0-0.8,0.3-1.4,0.9-2c0.6-0.6,1.2-0.8,2-0.8c0.8,0,1.4,0.3,2,0.8
			c0.5,0.5,0.8,1.2,0.8,2v50.8c0,3.4,1.2,5.1,3.6,5.1c0.7,0,1.4,0.3,1.9,0.8c0.5,0.5,0.8,1.1,0.8,1.9s-0.3,1.4-0.8,1.9
			c-0.5,0.5-1.2,0.8-1.9,0.8c-3,0-5.3-0.9-6.9-2.6C187.9,225.6,187.1,223.1,187.1,219.6z"/>
		<path id="XMLID_173_" class="st8" d="M209.2,209.1c0-14.2,5.9-21.3,17.8-21.3c2.7,0,5.1,0.6,7.2,1.7c2.1,1.1,3.8,2.5,4.9,4.1
			v-24.6c0-0.8,0.3-1.5,0.8-2c0.5-0.5,1.2-0.8,2-0.8s1.5,0.3,2,0.8c0.5,0.5,0.8,1.2,0.8,2V213c0,5.7-1.6,10-4.8,13
			c-3.2,3-7.4,4.5-12.6,4.5c-5.8,0-10.3-1.8-13.5-5.4C210.8,221.6,209.2,216.2,209.2,209.1z M214.9,209.1c0,10.8,4.2,16.3,12.5,16.3
			c3.6,0,6.4-1,8.5-3.1c2.1-2.1,3.2-5.2,3.2-9.2v-12.2c-0.1-0.2-0.2-0.5-0.4-0.8c-0.2-0.4-0.6-1-1.3-1.9s-1.4-1.7-2.3-2.4
			s-1.9-1.3-3.3-1.9c-1.4-0.6-2.9-0.8-4.4-0.8c-4.1,0-7.2,1.3-9.3,4C215.9,199.6,214.9,203.7,214.9,209.1z"/>
		<path id="XMLID_171_" class="st8" d="M257.1,222.3c0-0.7,0.2-1.3,0.7-1.8c0.5-0.5,1.1-0.7,1.8-0.7c0.7,0,1.4,0.3,2,0.9
			c2.9,2.9,6.7,4.4,11.3,4.4c2.8,0,5-0.5,6.8-1.5c1.7-1,2.6-2.6,2.6-4.8c0-1.1-0.3-2.1-1-2.9c-0.7-0.8-1.5-1.5-2.6-2
			c-1.1-0.5-2.4-1-3.8-1.5c-1.4-0.5-2.8-1-4.3-1.5s-2.9-1.1-4.3-1.8c-1.4-0.7-2.7-1.5-3.8-2.3c-1.1-0.9-2-2-2.6-3.3
			c-0.7-1.4-1-2.9-1-4.7c0-3.5,1.3-6.2,3.8-8c2.5-1.8,5.8-2.7,9.8-2.7c6.2,0,10.7,1.9,13.5,5.7c0.4,0.6,0.7,1.1,0.7,1.7
			c0,0.7-0.3,1.3-0.8,1.8c-0.5,0.5-1.1,0.7-1.8,0.7s-1.3-0.3-1.9-0.8c-1.3-1.2-2.7-2.2-4.2-2.8c-1.5-0.6-3.3-0.9-5.5-0.9
			c-2.3,0-4.2,0.4-5.7,1.3c-1.5,0.8-2.2,2.2-2.2,4.1c0,1.1,0.3,2.1,1,3c0.7,0.9,1.5,1.6,2.6,2.2c1.1,0.6,2.3,1.1,3.8,1.6
			c1.4,0.5,2.8,1,4.3,1.5c1.4,0.5,2.9,1.1,4.3,1.8c1.4,0.7,2.7,1.5,3.8,2.3c1.1,0.8,2,1.9,2.7,3.2c0.7,1.3,1,2.8,1,4.5
			c0,2.6-0.7,4.8-2,6.6c-1.4,1.8-3.2,3.1-5.4,3.9c-2.2,0.8-4.8,1.2-7.7,1.2c-3.4,0-6.4-0.7-9.1-2c-2.7-1.3-4.7-2.8-6.1-4.5
			C257.3,223.4,257.1,222.8,257.1,222.3z"/>
		<path id="XMLID_169_" class="st8" d="M295.2,246.4c-0.5-0.5-0.8-1.2-0.8-1.9c0-0.8,0.3-1.4,0.8-1.9s1.2-0.8,1.9-0.8
			c1.5,0,2.8-0.2,4-0.7c1.2-0.5,2.1-1,2.9-1.5c0.8-0.5,1.6-1.6,2.4-3.1c0.9-1.5,1.5-2.7,1.9-3.6c0.4-0.9,1.1-2.6,2.1-4.9
			c0-0.1,0-0.1,0.1-0.2s0-0.1,0.1-0.2l-14.8-35.3c-0.2-0.5-0.3-0.9-0.3-1.3c0-0.8,0.3-1.5,0.8-2c0.5-0.5,1.2-0.8,2-0.8
			c1.3,0,2.2,0.6,2.7,1.9l12.5,30.6l12.5-30.6c0.5-1.2,1.4-1.9,2.7-1.9c0.8,0,1.5,0.3,2,0.8c0.5,0.5,0.8,1.2,0.8,2
			c0,0.3-0.1,0.7-0.3,1.3L313.7,234c-1.9,4.5-4.1,7.9-6.6,10c-2.5,2.1-5.9,3.2-10,3.2C296.4,247.2,295.7,246.9,295.2,246.4z"/>
		<path id="XMLID_167_" class="st8" d="M337.6,222.3c0-0.7,0.2-1.3,0.7-1.8c0.5-0.5,1.1-0.7,1.8-0.7c0.7,0,1.4,0.3,2,0.9
			c2.9,2.9,6.7,4.4,11.3,4.4c2.8,0,5-0.5,6.8-1.5c1.7-1,2.6-2.6,2.6-4.8c0-1.1-0.3-2.1-1-2.9c-0.7-0.8-1.5-1.5-2.6-2
			c-1.1-0.5-2.4-1-3.8-1.5c-1.4-0.5-2.8-1-4.3-1.5s-2.9-1.1-4.3-1.8c-1.4-0.7-2.7-1.5-3.8-2.3c-1.1-0.9-2-2-2.6-3.3
			c-0.7-1.4-1-2.9-1-4.7c0-3.5,1.3-6.2,3.8-8c2.5-1.8,5.8-2.7,9.8-2.7c6.2,0,10.7,1.9,13.5,5.7c0.4,0.6,0.7,1.1,0.7,1.7
			c0,0.7-0.3,1.3-0.8,1.8c-0.5,0.5-1.1,0.7-1.8,0.7s-1.3-0.3-1.9-0.8c-1.3-1.2-2.7-2.2-4.2-2.8c-1.5-0.6-3.3-0.9-5.5-0.9
			c-2.3,0-4.2,0.4-5.7,1.3c-1.5,0.8-2.2,2.2-2.2,4.1c0,1.1,0.3,2.1,1,3c0.7,0.9,1.5,1.6,2.6,2.2c1.1,0.6,2.3,1.1,3.8,1.6
			c1.4,0.5,2.8,1,4.3,1.5c1.4,0.5,2.9,1.1,4.3,1.8c1.4,0.7,2.7,1.5,3.8,2.3c1.1,0.8,2,1.9,2.7,3.2c0.7,1.3,1,2.8,1,4.5
			c0,2.6-0.7,4.8-2,6.6c-1.4,1.8-3.2,3.1-5.4,3.9c-2.2,0.8-4.8,1.2-7.7,1.2c-3.4,0-6.4-0.7-9.1-2c-2.7-1.3-4.7-2.8-6.1-4.5
			C337.8,223.4,337.6,222.8,337.6,222.3z"/>
	</g>
</g>
</svg>
